<mxfile host="Electron" agent="Mozilla/5.0 (Windows NT 10.0; Win64; x64) AppleWebKit/537.36 (KHTML, like Gecko) draw.io/25.0.2 Chrome/128.0.6613.186 Electron/32.2.5 Safari/537.36" version="25.0.2">
  <diagram name="Page-1" id="7iO_0c6fxUnhXLDAfxkw">
    <mxGraphModel dx="1674" dy="844" grid="1" gridSize="10" guides="1" tooltips="1" connect="1" arrows="1" fold="1" page="1" pageScale="1" pageWidth="827" pageHeight="1169" math="0" shadow="0">
      <root>
        <mxCell id="0" />
        <mxCell id="1" parent="0" />
        <mxCell id="3gGrPfR2kz7HEbYIn5g8-10" value="" style="rounded=0;whiteSpace=wrap;html=1;" parent="1" vertex="1">
          <mxGeometry x="400" y="80" width="240" height="400" as="geometry" />
        </mxCell>
        <mxCell id="zVt4abJf5UJnlQEX2jwG-1" value="" style="rounded=0;whiteSpace=wrap;html=1;" vertex="1" parent="1">
          <mxGeometry x="420" y="280" width="180" height="100" as="geometry" />
        </mxCell>
        <mxCell id="3gGrPfR2kz7HEbYIn5g8-1" value="" style="rounded=0;whiteSpace=wrap;html=1;" parent="1" vertex="1">
          <mxGeometry x="120" y="80" width="240" height="400" as="geometry" />
        </mxCell>
        <mxCell id="3gGrPfR2kz7HEbYIn5g8-2" value="&amp;nbsp; &amp;nbsp;&lt;font style=&quot;font-size: 18px;&quot;&gt;Home&lt;/font&gt;" style="rounded=0;whiteSpace=wrap;html=1;align=left;" parent="1" vertex="1">
          <mxGeometry x="120" y="80" width="240" height="40" as="geometry" />
        </mxCell>
        <mxCell id="3gGrPfR2kz7HEbYIn5g8-3" value="Home" style="rounded=0;whiteSpace=wrap;html=1;" parent="1" vertex="1">
          <mxGeometry x="120" y="440" width="60" height="40" as="geometry" />
        </mxCell>
        <mxCell id="3gGrPfR2kz7HEbYIn5g8-4" value="Tasks" style="rounded=0;whiteSpace=wrap;html=1;" parent="1" vertex="1">
          <mxGeometry x="180" y="440" width="60" height="40" as="geometry" />
        </mxCell>
        <mxCell id="3gGrPfR2kz7HEbYIn5g8-5" value="Team" style="rounded=0;whiteSpace=wrap;html=1;" parent="1" vertex="1">
          <mxGeometry x="240" y="440" width="60" height="40" as="geometry" />
        </mxCell>
        <mxCell id="3gGrPfR2kz7HEbYIn5g8-6" value="Settings" style="rounded=0;whiteSpace=wrap;html=1;" parent="1" vertex="1">
          <mxGeometry x="300" y="440" width="60" height="40" as="geometry" />
        </mxCell>
        <mxCell id="3gGrPfR2kz7HEbYIn5g8-7" value="Scheduled Tasks" style="rounded=0;whiteSpace=wrap;html=1;" parent="1" vertex="1">
          <mxGeometry x="140" y="140" width="180" height="130" as="geometry" />
        </mxCell>
        <mxCell id="3gGrPfR2kz7HEbYIn5g8-8" value="Priority Tasks" style="rounded=0;whiteSpace=wrap;html=1;" parent="1" vertex="1">
          <mxGeometry x="140" y="290" width="180" height="130" as="geometry" />
        </mxCell>
        <mxCell id="3gGrPfR2kz7HEbYIn5g8-9" value="" style="rounded=0;whiteSpace=wrap;html=1;" parent="1" vertex="1">
          <mxGeometry x="330" y="140" width="10" height="280" as="geometry" />
        </mxCell>
        <mxCell id="3gGrPfR2kz7HEbYIn5g8-11" value="&amp;nbsp; &amp;nbsp;&lt;font style=&quot;font-size: 18px;&quot;&gt;Tasks&lt;/font&gt;" style="rounded=0;whiteSpace=wrap;html=1;align=left;" parent="1" vertex="1">
          <mxGeometry x="400" y="80" width="240" height="40" as="geometry" />
        </mxCell>
        <mxCell id="3gGrPfR2kz7HEbYIn5g8-12" value="Home" style="rounded=0;whiteSpace=wrap;html=1;" parent="1" vertex="1">
          <mxGeometry x="400" y="440" width="60" height="40" as="geometry" />
        </mxCell>
        <mxCell id="3gGrPfR2kz7HEbYIn5g8-13" value="Tasks" style="rounded=0;whiteSpace=wrap;html=1;" parent="1" vertex="1">
          <mxGeometry x="460" y="440" width="60" height="40" as="geometry" />
        </mxCell>
        <mxCell id="3gGrPfR2kz7HEbYIn5g8-14" value="Team" style="rounded=0;whiteSpace=wrap;html=1;" parent="1" vertex="1">
          <mxGeometry x="520" y="440" width="60" height="40" as="geometry" />
        </mxCell>
        <mxCell id="3gGrPfR2kz7HEbYIn5g8-15" value="Settings" style="rounded=0;whiteSpace=wrap;html=1;" parent="1" vertex="1">
          <mxGeometry x="580" y="440" width="60" height="40" as="geometry" />
        </mxCell>
        <mxCell id="3gGrPfR2kz7HEbYIn5g8-16" value="Priority Tasks" style="rounded=0;whiteSpace=wrap;html=1;" parent="1" vertex="1">
          <mxGeometry x="420" y="140" width="180" height="40" as="geometry" />
        </mxCell>
        <mxCell id="3gGrPfR2kz7HEbYIn5g8-17" value="Long Term Tasks" style="rounded=0;whiteSpace=wrap;html=1;" parent="1" vertex="1">
          <mxGeometry x="420" y="190" width="180" height="40" as="geometry" />
        </mxCell>
        <mxCell id="3gGrPfR2kz7HEbYIn5g8-18" value="" style="rounded=0;whiteSpace=wrap;html=1;" parent="1" vertex="1">
          <mxGeometry x="610" y="140" width="10" height="280" as="geometry" />
        </mxCell>
        <mxCell id="3gGrPfR2kz7HEbYIn5g8-19" value="Custom Type 1 Tasks" style="rounded=0;whiteSpace=wrap;html=1;" parent="1" vertex="1">
          <mxGeometry x="420" y="240" width="180" height="40" as="geometry" />
        </mxCell>
        <mxCell id="3gGrPfR2kz7HEbYIn5g8-20" value="&amp;nbsp; Task Title" style="rounded=0;whiteSpace=wrap;html=1;align=left;" parent="1" vertex="1">
          <mxGeometry x="430" y="280" width="160" height="30" as="geometry" />
        </mxCell>
        <mxCell id="3gGrPfR2kz7HEbYIn5g8-21" value="&amp;nbsp; Task Title" style="rounded=0;whiteSpace=wrap;html=1;align=left;" parent="1" vertex="1">
          <mxGeometry x="430" y="310" width="160" height="30" as="geometry" />
        </mxCell>
        <mxCell id="3gGrPfR2kz7HEbYIn5g8-22" value="&amp;nbsp; Task Title" style="rounded=0;whiteSpace=wrap;html=1;align=left;" parent="1" vertex="1">
          <mxGeometry x="430" y="340" width="160" height="30" as="geometry" />
        </mxCell>
        <mxCell id="3gGrPfR2kz7HEbYIn5g8-24" value="+ Add Custom Task Type" style="rounded=0;whiteSpace=wrap;html=1;" parent="1" vertex="1">
          <mxGeometry x="420" y="390" width="180" height="30" as="geometry" />
        </mxCell>
        <mxCell id="3gGrPfR2kz7HEbYIn5g8-26" value="" style="rounded=0;whiteSpace=wrap;html=1;" parent="1" vertex="1">
          <mxGeometry x="120" y="520" width="240" height="400" as="geometry" />
        </mxCell>
        <mxCell id="3gGrPfR2kz7HEbYIn5g8-27" value="&amp;nbsp; &amp;nbsp;&lt;span style=&quot;font-size: 18px;&quot;&gt;Team&lt;/span&gt;" style="rounded=0;whiteSpace=wrap;html=1;align=left;" parent="1" vertex="1">
          <mxGeometry x="120" y="520" width="240" height="40" as="geometry" />
        </mxCell>
        <mxCell id="3gGrPfR2kz7HEbYIn5g8-28" value="Home" style="rounded=0;whiteSpace=wrap;html=1;" parent="1" vertex="1">
          <mxGeometry x="120" y="880" width="60" height="40" as="geometry" />
        </mxCell>
        <mxCell id="3gGrPfR2kz7HEbYIn5g8-29" value="Tasks" style="rounded=0;whiteSpace=wrap;html=1;" parent="1" vertex="1">
          <mxGeometry x="180" y="880" width="60" height="40" as="geometry" />
        </mxCell>
        <mxCell id="3gGrPfR2kz7HEbYIn5g8-30" value="Team" style="rounded=0;whiteSpace=wrap;html=1;" parent="1" vertex="1">
          <mxGeometry x="240" y="880" width="60" height="40" as="geometry" />
        </mxCell>
        <mxCell id="3gGrPfR2kz7HEbYIn5g8-31" value="Settings" style="rounded=0;whiteSpace=wrap;html=1;" parent="1" vertex="1">
          <mxGeometry x="300" y="880" width="60" height="40" as="geometry" />
        </mxCell>
        <mxCell id="3gGrPfR2kz7HEbYIn5g8-32" value="&amp;nbsp; Members" style="rounded=0;whiteSpace=wrap;html=1;align=left;" parent="1" vertex="1">
          <mxGeometry x="140" y="710" width="180" height="30" as="geometry" />
        </mxCell>
        <mxCell id="3gGrPfR2kz7HEbYIn5g8-33" value="Team Info" style="rounded=0;whiteSpace=wrap;html=1;" parent="1" vertex="1">
          <mxGeometry x="140" y="580" width="180" height="120" as="geometry" />
        </mxCell>
        <mxCell id="3gGrPfR2kz7HEbYIn5g8-34" value="" style="rounded=0;whiteSpace=wrap;html=1;" parent="1" vertex="1">
          <mxGeometry x="330" y="580" width="10" height="280" as="geometry" />
        </mxCell>
        <mxCell id="3gGrPfR2kz7HEbYIn5g8-35" value="USR 1" style="rounded=0;whiteSpace=wrap;html=1;" parent="1" vertex="1">
          <mxGeometry x="140" y="740" width="60" height="60" as="geometry" />
        </mxCell>
        <mxCell id="3gGrPfR2kz7HEbYIn5g8-36" value="USR 2" style="rounded=0;whiteSpace=wrap;html=1;" parent="1" vertex="1">
          <mxGeometry x="200" y="740" width="60" height="60" as="geometry" />
        </mxCell>
        <mxCell id="3gGrPfR2kz7HEbYIn5g8-37" value="USR 3" style="rounded=0;whiteSpace=wrap;html=1;" parent="1" vertex="1">
          <mxGeometry x="260" y="740" width="60" height="60" as="geometry" />
        </mxCell>
        <mxCell id="3gGrPfR2kz7HEbYIn5g8-38" value="USR 4" style="rounded=0;whiteSpace=wrap;html=1;" parent="1" vertex="1">
          <mxGeometry x="140" y="800" width="60" height="60" as="geometry" />
        </mxCell>
        <mxCell id="3gGrPfR2kz7HEbYIn5g8-39" value="USR 5" style="rounded=0;whiteSpace=wrap;html=1;" parent="1" vertex="1">
          <mxGeometry x="200" y="800" width="60" height="60" as="geometry" />
        </mxCell>
        <mxCell id="3gGrPfR2kz7HEbYIn5g8-40" value="USR 6" style="rounded=0;whiteSpace=wrap;html=1;" parent="1" vertex="1">
          <mxGeometry x="260" y="800" width="60" height="60" as="geometry" />
        </mxCell>
        <mxCell id="3gGrPfR2kz7HEbYIn5g8-41" value="" style="rounded=0;whiteSpace=wrap;html=1;" parent="1" vertex="1">
          <mxGeometry x="400" y="520" width="240" height="400" as="geometry" />
        </mxCell>
        <mxCell id="3gGrPfR2kz7HEbYIn5g8-42" value="&amp;nbsp; &amp;nbsp;&lt;span style=&quot;font-size: 18px;&quot;&gt;Settings&lt;/span&gt;" style="rounded=0;whiteSpace=wrap;html=1;align=left;" parent="1" vertex="1">
          <mxGeometry x="400" y="520" width="240" height="40" as="geometry" />
        </mxCell>
        <mxCell id="3gGrPfR2kz7HEbYIn5g8-43" value="Home" style="rounded=0;whiteSpace=wrap;html=1;" parent="1" vertex="1">
          <mxGeometry x="400" y="880" width="60" height="40" as="geometry" />
        </mxCell>
        <mxCell id="3gGrPfR2kz7HEbYIn5g8-44" value="Tasks" style="rounded=0;whiteSpace=wrap;html=1;" parent="1" vertex="1">
          <mxGeometry x="460" y="880" width="60" height="40" as="geometry" />
        </mxCell>
        <mxCell id="3gGrPfR2kz7HEbYIn5g8-45" value="Team" style="rounded=0;whiteSpace=wrap;html=1;" parent="1" vertex="1">
          <mxGeometry x="520" y="880" width="60" height="40" as="geometry" />
        </mxCell>
        <mxCell id="3gGrPfR2kz7HEbYIn5g8-46" value="Settings" style="rounded=0;whiteSpace=wrap;html=1;" parent="1" vertex="1">
          <mxGeometry x="580" y="880" width="60" height="40" as="geometry" />
        </mxCell>
        <mxCell id="3gGrPfR2kz7HEbYIn5g8-48" value="&amp;nbsp; UI" style="rounded=0;whiteSpace=wrap;html=1;align=left;" parent="1" vertex="1">
          <mxGeometry x="420" y="670" width="180" height="20" as="geometry" />
        </mxCell>
        <mxCell id="3gGrPfR2kz7HEbYIn5g8-49" value="" style="rounded=0;whiteSpace=wrap;html=1;" parent="1" vertex="1">
          <mxGeometry x="610" y="580" width="10" height="280" as="geometry" />
        </mxCell>
        <mxCell id="3gGrPfR2kz7HEbYIn5g8-56" value="&amp;nbsp; General" style="rounded=0;whiteSpace=wrap;html=1;align=left;" parent="1" vertex="1">
          <mxGeometry x="420" y="580" width="180" height="20" as="geometry" />
        </mxCell>
        <mxCell id="3gGrPfR2kz7HEbYIn5g8-57" value="&amp;nbsp; Profile" style="rounded=0;whiteSpace=wrap;html=1;align=left;" parent="1" vertex="1">
          <mxGeometry x="420" y="760" width="180" height="20" as="geometry" />
        </mxCell>
        <mxCell id="3gGrPfR2kz7HEbYIn5g8-58" value="" style="rounded=0;whiteSpace=wrap;html=1;align=left;" parent="1" vertex="1">
          <mxGeometry x="420" y="600" width="180" height="20" as="geometry" />
        </mxCell>
        <mxCell id="3gGrPfR2kz7HEbYIn5g8-59" value="" style="rounded=0;whiteSpace=wrap;html=1;align=left;" parent="1" vertex="1">
          <mxGeometry x="420" y="620" width="180" height="20" as="geometry" />
        </mxCell>
        <mxCell id="3gGrPfR2kz7HEbYIn5g8-60" value="" style="rounded=0;whiteSpace=wrap;html=1;align=left;" parent="1" vertex="1">
          <mxGeometry x="420" y="640" width="180" height="20" as="geometry" />
        </mxCell>
        <mxCell id="3gGrPfR2kz7HEbYIn5g8-62" value="" style="rounded=0;whiteSpace=wrap;html=1;align=left;" parent="1" vertex="1">
          <mxGeometry x="420" y="690" width="180" height="20" as="geometry" />
        </mxCell>
        <mxCell id="3gGrPfR2kz7HEbYIn5g8-63" value="" style="rounded=0;whiteSpace=wrap;html=1;align=left;" parent="1" vertex="1">
          <mxGeometry x="420" y="710" width="180" height="20" as="geometry" />
        </mxCell>
        <mxCell id="3gGrPfR2kz7HEbYIn5g8-64" value="" style="rounded=0;whiteSpace=wrap;html=1;align=left;" parent="1" vertex="1">
          <mxGeometry x="420" y="730" width="180" height="20" as="geometry" />
        </mxCell>
        <mxCell id="3gGrPfR2kz7HEbYIn5g8-65" value="" style="rounded=0;whiteSpace=wrap;html=1;align=left;" parent="1" vertex="1">
          <mxGeometry x="420" y="780" width="180" height="20" as="geometry" />
        </mxCell>
        <mxCell id="3gGrPfR2kz7HEbYIn5g8-66" value="" style="rounded=0;whiteSpace=wrap;html=1;align=left;" parent="1" vertex="1">
          <mxGeometry x="420" y="800" width="180" height="20" as="geometry" />
        </mxCell>
        <mxCell id="3gGrPfR2kz7HEbYIn5g8-68" value="" style="rounded=0;whiteSpace=wrap;html=1;align=left;" parent="1" vertex="1">
          <mxGeometry x="420" y="820" width="180" height="20" as="geometry" />
        </mxCell>
        <mxCell id="3gGrPfR2kz7HEbYIn5g8-69" value="" style="rounded=0;whiteSpace=wrap;html=1;align=left;" parent="1" vertex="1">
          <mxGeometry x="420" y="840" width="180" height="20" as="geometry" />
        </mxCell>
      </root>
    </mxGraphModel>
  </diagram>
</mxfile>
